<svg width="476" height="476" viewBox="0 0 476 476" fill="none" xmlns="http://www.w3.org/2000/svg">
<path fill-rule="evenodd" clip-rule="evenodd" d="M229.542 421.017C134.501 417.116 58.1103 340.916 53.9055 245.954L19.199 237.768L53.8993 229.584C58.0354 134.545 134.473 58.2646 229.577 54.3785L237.904 19.0527L237.975 19.3634L246.248 54.4423C340.575 59.0237 416.2 134.838 420.483 229.243L456.63 237.768L420.477 246.291C416.128 340.621 340.548 416.357 246.283 420.953L237.904 456.474L229.542 421.017ZM96.3516 255.964L168.263 272.925L131.461 332.432C112.749 311.58 100.116 285.162 96.3516 255.964ZM84.9582 253.277L59.4814 247.269C64.2964 338.14 137.277 410.932 228.228 415.447L222.207 389.917C188.15 386.609 157.362 372.136 133.55 350.204L112.371 363.301L125.443 342.163C103.188 318.384 88.4352 287.498 84.9582 253.277ZM143.304 344.173C164.172 362.574 190.489 374.941 219.524 378.542L202.748 307.41L143.304 344.173ZM247.6 415.37C292.757 412.768 333.401 393.329 363.348 363.236L341.4 349.665C317.851 371.579 287.386 386.158 253.639 389.766L247.6 415.37ZM256.332 378.35C285.054 374.478 311.054 362.02 331.661 343.643L273.061 307.41L256.332 378.35ZM363.382 363.202C393.216 333.208 412.427 292.637 414.898 247.606L389.373 253.624C385.878 287.259 371.488 317.657 349.793 341.226L363.382 363.202ZM343.76 331.472C361.929 310.855 374.209 284.925 377.97 256.312L307.546 272.915L343.76 331.472ZM414.905 227.927L389.403 221.913C385.966 188.22 371.598 157.762 349.902 134.142L363.438 112.251C393.27 142.27 412.467 182.87 414.905 227.927ZM363.438 112.251C333.474 82.1027 292.778 62.622 247.565 60.0253L253.567 85.4751C287.43 89.0797 317.993 103.731 341.583 125.755L363.438 112.251ZM331.849 131.774C311.195 113.29 285.098 100.761 256.259 96.8894L273.061 168.127L331.849 131.774ZM343.868 143.9L307.566 202.612L378.008 219.225C374.298 190.555 362.038 164.566 343.868 143.9ZM228.264 59.9488C137.249 64.4489 64.2216 137.32 59.474 228.269L84.9285 222.266C88.3454 187.981 103.079 157.028 125.341 133.196L112.381 112.235L133.368 125.212C157.223 103.171 188.108 88.6275 222.281 85.3247L228.264 59.9488ZM219.6 96.6971C190.448 100.297 164.034 112.732 143.118 131.24L202.758 168.117L219.6 96.6971ZM131.359 142.93L168.263 202.612L96.3137 219.581C100.024 190.319 112.64 163.835 131.359 142.93ZM237.914 438.495V285.682H237.924L238.095 285.783L242.164 288.298L242.214 288.328L269.373 305.125L237.914 438.495ZM438.651 237.768H285.829L305.281 206.31L438.651 237.768ZM238.085 193.512L270.144 173.789L270.175 173.769L273.853 171.504L273.883 171.484L331.819 135.837L340.137 130.695L340.076 130.756L352.714 122.979L242.144 233.539L242.124 233.559L237.914 237.768V193.632L238.085 193.512ZM237.904 237.798L193.758 237.798L173.935 205.568L173.915 205.538L171.65 201.86L171.63 201.83L135.983 143.874L130.842 135.566L130.902 135.626L123.125 122.989L237.904 237.768H237.914H282.04L301.863 269.998L301.883 270.028L304.148 273.706L304.168 273.736L339.826 331.672L344.967 339.99L344.907 339.93L352.684 352.568L242.114 241.997L237.904 237.788V237.798ZM237.904 237.798V281.944L237.734 282.054L205.674 301.777L205.644 301.797L201.966 304.062L201.936 304.082L143.96 339.76L135.682 344.881L135.742 344.821L123.105 352.598L233.695 242.007L237.904 237.798ZM237.914 37.0318L237.914 189.844H237.904L237.744 189.744L233.675 187.228L233.625 187.198L206.466 170.402L237.914 37.0318ZM189.994 237.778L170.548 269.227L37.178 237.778L189.994 237.778Z" fill="#131313"/>
<path fill-rule="evenodd" clip-rule="evenodd" d="M475.447 237.724C475.447 369.015 369.015 475.447 237.724 475.447C106.432 475.447 -1.14778e-05 369.015 0 237.724C1.14778e-05 106.432 106.433 -1.14778e-05 237.724 0C369.015 1.14778e-05 475.447 106.433 475.447 237.724ZM237.724 460C360.483 460 460 360.483 460 237.724C460 114.964 360.483 15.4473 237.724 15.4473C114.964 15.4473 15.4473 114.964 15.4473 237.724C15.4473 360.483 114.964 460 237.724 460Z" fill="#131313"/>
</svg>
