<svg width="640" height="640" viewBox="0 0 640 640" fill="none" xmlns="http://www.w3.org/2000/svg">
<path fill-rule="evenodd" clip-rule="evenodd" d="M313.313 173.3C237.994 176.979 177.638 237.62 174.412 313.057L144.992 319.996L174.467 326.947C178.26 401.749 238.237 461.726 313.038 465.519L319.988 495L320.044 494.751L326.926 465.574C402.364 462.349 463.006 401.994 466.685 326.674L495 319.996L466.738 313.333C463.631 237.376 402.608 176.353 326.651 173.247L319.988 145L313.313 173.3ZM196.864 307.762L177.83 312.251C181.431 239.323 239.697 180.774 312.506 176.724L306.623 201.669C280.424 203.968 256.612 214.588 237.846 230.87L219.543 219.552L230.7 237.592C212.476 256.169 200.178 280.579 196.864 307.762ZM196.332 332.104L177.892 327.755C182.052 400.045 239.941 457.934 312.23 462.093L307.882 443.649C279.558 441.459 253.959 429.549 234.414 411.251L219.551 420.44L228.741 405.578C210.437 386.033 198.523 360.431 196.332 332.104ZM332.223 443.115L327.732 462.156C400.66 458.556 459.211 400.291 463.261 327.482L438.31 333.366C436.01 359.558 425.393 383.363 409.116 402.126L420.44 420.44L402.389 409.278C383.813 427.501 359.405 439.8 332.223 443.115ZM437.72 306.492L463.322 312.528C459.836 239.079 400.906 180.149 327.457 176.664L333.494 202.261C358.572 205.588 381.232 216.57 399.05 232.781L420.432 219.56L407.21 240.942C423.416 258.76 434.394 281.418 437.72 306.492ZM203.899 306.103C207.373 282.006 218.341 260.331 234.365 243.519L264.265 291.866L203.899 306.103ZM243.881 234.602C260.802 220.456 281.864 211.1 304.984 208.616L291.858 264.273L243.881 234.602ZM335.161 209.326C357.155 212.752 377.079 222.429 393.06 236.485L348.118 264.273L335.161 209.326ZM403.505 246.932C417.557 262.912 427.231 282.835 430.655 304.827L375.711 291.874L403.505 246.932ZM431.363 335.005C428.878 358.117 419.524 379.173 405.384 396.09L375.727 348.126L431.363 335.005ZM398.491 403.632L398.659 403.463L404.693 406.956L404.4 407.258L411.852 411.844L323.38 323.38L323.364 323.364L319.996 319.996V355.311L320.132 355.407L345.785 371.189L345.809 371.205L348.752 373.017L348.776 373.033L395.133 401.556L398.491 403.632ZM319.988 319.98L319.916 319.9L316.62 316.604L316.604 316.588L228.132 228.116L238.243 234.338L238.195 234.29L244.819 238.388L291.208 266.935L291.232 266.951L294.175 268.763L294.199 268.779L319.852 284.561L319.988 284.649V319.98ZM319.988 319.98L319.964 319.972H284.665L268.803 345.761L268.787 345.785L266.975 348.728L266.959 348.752L238.436 395.125L234.322 401.772L234.37 401.724L228.148 411.836L319.948 320.036L319.996 319.996H355.303L371.164 294.207L371.18 294.183L372.993 291.24L373.009 291.216L401.54 244.859L405.654 238.203L405.606 238.252L411.828 228.14L319.988 319.98ZM396.462 405.613C379.651 421.637 357.978 432.605 333.882 436.08L348.118 375.719L396.462 405.613ZM306.25 436.727C281.005 434.297 258.152 423.68 240.379 407.562L291.866 375.727L306.25 436.727ZM232.428 399.613C216.307 381.84 205.686 358.985 203.253 333.737L264.265 348.126L232.428 399.613ZM319.996 159.386L345.167 266.101L323.436 279.541L323.396 279.565L320.14 281.578L319.996 281.658V159.386ZM358.334 319.996H480.614L373.899 345.167L358.334 319.996ZM319.996 480.614L294.833 373.899L316.564 360.459L316.604 360.435L319.86 358.422L319.996 358.342V480.614ZM266.093 294.825L281.658 319.996L159.378 319.988L266.093 294.825Z" fill="white"/>
<path fill-rule="evenodd" clip-rule="evenodd" d="M320 0C496.72 0 639.98 143.248 640 319.963V320C640 496.732 496.732 640 320 640C143.268 640 0 496.732 0 320V319.963C0.0200272 143.248 143.28 0 320 0ZM199.531 34.8212C237.681 18.6871 278.215 10.5029 320 10.5029C361.786 10.5029 402.319 18.6791 440.469 34.8212C477.318 50.406 510.426 72.7287 538.849 101.151C567.271 129.574 589.594 162.674 605.179 199.531C621.308 237.67 629.492 278.191 629.497 319.963H510.217V319.935C510.217 214.895 425.066 129.744 320.026 129.744C214.987 129.744 129.836 214.895 129.836 319.935V319.963H10.5029C10.5077 278.191 18.6919 237.67 34.8213 199.531C50.406 162.682 72.7207 129.582 101.151 101.151C129.574 72.7287 162.674 50.406 199.531 34.8212ZM500.67 319.935C500.67 220.168 419.793 139.291 320.026 139.291C220.26 139.291 139.383 220.168 139.383 319.935C139.383 419.701 220.26 500.578 320.026 500.578C419.793 500.578 500.67 419.701 500.67 319.935Z" fill="white"/>
</svg>
